# xmcd CD database file
#
# Track frame offsets:
#	150
#	1641
#	16668
#	34448
#	52806
#	80141
#	99932
#	123079
#	136324
#	155147
#	170443
#	188075
#	201426
#	220858
#	245004
#	258684
#	270162
#
# Disc length: 3622 seconds
#
# Revision: 0
# Processed by: cddbd v1.5.2PL0 Copyright (c) Steve Scherf et al.
# Submitted via: CDex 1.51
#
DISCID=e00e2411
DTITLE=United Syncopators - Live 1986-1999 (Collectors Edition 1)
DYEAR=2000
DGENRE=Jazz
TTITLE0=Presenting the Band
TTITLE1=Moan You Moaners
TTITLE2=Sugar Foot Strut
TTITLE3=East St. Louis Toodloo
TTITLE4=Panama Rag
TTITLE5=Salutation March
TTITLE6=Eggs in The Basket
TTITLE7=Working Man Blues
TTITLE8=High Society
TTITLE9=Buddy's Habits
TTITLE10=Spanish Shawl
TTITLE11=Thriller Rag
TTITLE12=Terrible Blues
TTITLE13=Savoy Blues
TTITLE14=Close Fit Blues
TTITLE15=Canal Street Blues
TTITLE16=The Break
EXTD=YEAR: 2000
EXTT0=
EXTT1=
EXTT2=
EXTT3=
EXTT4=
EXTT5=
EXTT6=
EXTT7=
EXTT8=
EXTT9=
EXTT10=
EXTT11=
EXTT12=
EXTT13=
EXTT14=
EXTT15=
EXTT16=
PLAYORDER=
